<?xml version="1.0" standalone="no"?><!DOCTYPE svg PUBLIC "-//W3C//DTD SVG 1.1//EN" "http://www.w3.org/Graphics/SVG/1.1/DTD/svg11.dtd"><svg t="1683295205584" class="icon" viewBox="0 0 1024 1024" version="1.1" xmlns="http://www.w3.org/2000/svg" p-id="4917" xmlns:xlink="http://www.w3.org/1999/xlink" width="200" height="200"><path d="M538.81 131.62l298 250.08-71.71 85.45-298-250.07 71.7-85.46M532.89 64L399.48 223l371.57 311.77 133.41-159L532.89 64zM412 340l241.65 202.76-155.47 241.62L173 870.16l28-335.1L412 340m-1.54-64L154.77 512.48l-35.23 421.43L528.45 826 716.9 533.17 410.46 276z" p-id="4918"></path><path d="M433.52 638.54a79 79 0 1 1 60.62-28.21 78.43 78.43 0 0 1-53.61 27.9c-2.34 0.21-4.69 0.31-7.01 0.31z m0.16-109.92a31 31 0 1 0 23.69 50.85 30.94 30.94 0 0 0-23.69-50.85z" p-id="4919"></path><path d="M133.725 879.668l261.113-311.183 36.77 30.854-261.113 311.183zM408.41 984c-6.92 0-13.41-0.13-19.43-0.36-46.58-1.73-90.5-9.69-117.5-21.29a24 24 0 1 1 18.94-44.1c16.1 6.92 52 15.63 100.34 17.43a515.65 515.65 0 0 0 171.1-23.13c63.52-19.86 123-28.75 177-26.44a360 360 0 0 1 127.66 28.8 24 24 0 1 1-18.78 44.17c-79.14-33.66-165.42-33.89-271.52-0.72A566 566 0 0 1 408.41 984z" p-id="4920"></path></svg>